<svg xmlns="http://www.w3.org/2000/svg" version="1.1" viewBox="0.7874878644943237 0.6873161792755127 603.1045532226562 684.3126831054688" width="604.00" height="685.00">
<g stroke-width="2.00" fill="none" stroke-linecap="butt">
<path stroke="#081123" stroke-opacity="0.996" d="&#10;  M 535.61 392.11&#10;  Q 541.09 383.20 546.52 374.36&#10;  Q 553.13 363.58 556.93 356.31&#10;  Q 585.70 301.21 596.92 239.71&#10;  Q 597.01 239.21 599.08 226.58&#10;  C 600.72 216.60 601.10 208.15 602.16 197.48&#10;  Q 602.76 191.36 602.54 171.25&#10;  Q 602.48 165.45 602.50 163.76&#10;  Q 602.59 158.77 602.16 156.31&#10;  Q 601.53 152.61 600.94 144.87&#10;  Q 600.60 140.40 599.44 133.46&#10;  Q 595.97 112.72 588.25 93.47&#10;  Q 581.05 75.52 571.23 62.12&#10;  Q 568.57 58.49 567.81 57.40&#10;  Q 566.49 55.52 564.26 53.05&#10;  Q 559.70 48.01 558.60 46.91&#10;  Q 538.47 26.65 513.17 16.15&#10;  Q 475.04 0.33 434.43 1.81&#10;  Q 423.64 2.20 412.72 4.13&#10;  Q 397.24 6.85 391.29 8.64&#10;  Q 377.04 12.92 366.30 17.57&#10;  Q 342.66 27.81 320.40 43.92&#10;  C 316.96 46.41 314.02 48.19 311.87 50.08&#10;  Q 308.56 52.98 306.02 54.93&#10;  C 301.44 58.45 298.66 61.56 294.59 64.96&#10;  Q 292.82 66.44 289.11 70.25&#10;  Q 282.35 77.19 276.89 82.97&#10;  Q 272.45 87.67 267.47 93.78&#10;  Q 261.16 101.53 258.42 104.93&#10;  Q 256.86 106.88 255.58 106.48"/>
<path stroke="#081123" stroke-opacity="0.996" d="&#10;  M 197.01 444.91&#10;  Q 194.13 452.43 192.73 460.51&#10;  Q 191.28 468.82 191.12 469.66&#10;  Q 187.23 489.07 184.45 502.03&#10;  C 182.23 512.41 180.36 523.49 177.90 533.96&#10;  Q 177.06 537.55 175.73 544.58&#10;  Q 174.49 551.23 173.66 555.23&#10;  Q 164.31 600.58 161.54 614.00&#10;  Q 158.91 626.74 157.41 642.03&#10;  C 156.90 647.18 157.96 652.84 159.35 656.72&#10;  C 163.08 667.10 173.02 672.70 183.88 673.58&#10;  A 1.45 1.45 0.0 0 1 185.18 675.34&#10;  L 183.55 682.68&#10;  A 1.57 1.57 0.0 0 1 182.03 683.91&#10;  Q 180.43 683.91 178.50 683.90&#10;  Q 119.53 683.76 49.26 683.80&#10;  Q 38.49 683.81 28.62 682.24&#10;  C 25.36 681.73 22.29 680.60 19.91 679.77&#10;  C 10.00 676.36 3.12 666.02 2.10 655.74&#10;  Q 1.32 647.90 2.00 643.13&#10;  Q 4.05 628.61 7.71 612.49&#10;  Q 7.72 612.46 8.88 607.00&#10;  Q 15.00 578.09 25.21 527.83&#10;  Q 27.31 517.50 34.92 480.17&#10;  Q 39.50 457.66 54.05 386.80&#10;  Q 72.49 296.97 100.61 153.44&#10;  Q 104.08 135.76 107.82 117.32&#10;  Q 114.44 84.65 114.99 81.22&#10;  C 117.20 67.43 117.65 54.31 106.38 44.67&#10;  Q 98.81 38.20 87.61 37.34&#10;  A 2.17 2.17 0.0 0 1 85.66 34.71&#10;  L 86.46 31.11&#10;  A 3.12 3.12 0.0 0 1 89.49 28.67&#10;  Q 102.64 28.62 120.74 28.52&#10;  C 127.90 28.48 135.57 27.67 143.06 27.97&#10;  C 165.38 28.86 187.69 27.61 210.01 28.23&#10;  Q 215.59 28.39 224.49 28.00&#10;  Q 234.19 27.57 241.80 28.22&#10;  C 253.84 29.26 262.52 37.65 263.10 50.01&#10;  Q 263.43 56.76 261.75 63.70&#10;  Q 260.92 67.18 260.54 69.90&#10;  Q 260.38 71.01 257.18 85.88&#10;  Q 256.73 88.00 255.90 93.90&#10;  A 4.57 4.52 58.7 0 1 255.70 94.74&#10;  Q 253.89 100.02 254.54 105.33"/>
<path stroke="#081123" stroke-opacity="0.996" d="&#10;  M 378.84 48.52&#10;  Q 372.55 51.11 367.22 53.96&#10;  Q 362.29 56.59 356.55 61.03&#10;  C 348.22 67.48 340.60 74.14 333.75 82.12&#10;  C 331.42 84.84 326.25 90.02 322.59 94.88&#10;  Q 321.76 95.97 319.32 98.77&#10;  Q 317.66 100.66 314.30 106.12&#10;  A 9.51 9.15 -9.2 0 1 313.27 107.49&#10;  Q 311.75 109.14 311.41 109.64&#10;  Q 303.08 122.31 296.20 134.02&#10;  C 294.79 136.42 294.00 139.08 292.09 141.58&#10;  A 1.32 1.18 -15.3 0 0 291.91 141.86&#10;  L 285.51 154.50&#10;  A 0.85 0.64 70.7 0 0 285.44 154.72&#10;  C 285.11 156.48 283.88 158.02 283.11 159.70&#10;  Q 277.81 171.33 274.99 178.49&#10;  Q 264.26 205.75 254.88 239.87&#10;  Q 248.38 263.51 242.89 290.44&#10;  Q 237.82 315.28 235.61 340.01&#10;  Q 233.54 363.19 233.79 369.00&#10;  Q 233.85 370.25 235.12 390.98&#10;  C 235.40 395.63 236.28 399.50 236.63 403.76&#10;  Q 236.95 407.75 238.19 413.29&#10;  Q 240.30 422.66 241.51 426.84&#10;  Q 245.83 441.71 254.86 453.65&#10;  Q 254.90 453.70 258.06 457.20&#10;  C 263.59 463.35 269.96 467.78 277.53 470.68&#10;  Q 285.21 473.63 288.02 473.96&#10;  C 297.21 475.03 308.53 474.69 317.17 471.33&#10;  C 320.34 470.10 323.49 469.21 326.42 467.47&#10;  C 329.32 465.73 331.85 464.44 334.78 462.13&#10;  Q 345.61 453.57 352.66 445.16&#10;  Q 361.58 434.51 367.39 425.64&#10;  Q 384.38 399.67 397.54 370.04&#10;  Q 404.59 354.19 410.26 339.02&#10;  Q 432.39 279.84 443.34 217.06&#10;  Q 448.94 184.98 450.72 152.16&#10;  C 451.30 141.34 451.43 127.73 450.97 118.51&#10;  Q 450.33 105.92 447.31 90.43&#10;  C 446.68 87.17 445.04 82.33 444.01 79.48&#10;  Q 439.90 68.09 431.00 58.78&#10;  Q 423.60 51.05 413.03 48.08&#10;  Q 406.59 46.27 400.27 45.77&#10;  Q 400.07 45.76 390.17 45.97&#10;  C 386.01 46.06 381.92 47.24 378.84 48.52"/>
</g>
<path fill="#020305" fill-opacity="0.996" d="&#10;  M 535.61 392.11&#10;  Q 541.09 383.20 546.52 374.36&#10;  Q 553.13 363.58 556.93 356.31&#10;  Q 585.70 301.21 596.92 239.71&#10;  Q 597.01 239.21 599.08 226.58&#10;  C 600.72 216.60 601.10 208.15 602.16 197.48&#10;  Q 602.76 191.36 602.54 171.25&#10;  Q 602.48 165.45 602.50 163.76&#10;  Q 602.59 158.77 602.16 156.31&#10;  Q 601.53 152.61 600.94 144.87&#10;  Q 600.60 140.40 599.44 133.46&#10;  Q 595.97 112.72 588.25 93.47&#10;  Q 581.05 75.52 571.23 62.12&#10;  Q 568.57 58.49 567.81 57.40&#10;  Q 566.49 55.52 564.26 53.05&#10;  Q 559.70 48.01 558.60 46.91&#10;  Q 538.47 26.65 513.17 16.15&#10;  Q 475.04 0.33 434.43 1.81&#10;  Q 423.64 2.20 412.72 4.13&#10;  Q 397.24 6.85 391.29 8.64&#10;  Q 377.04 12.92 366.30 17.57&#10;  Q 342.66 27.81 320.40 43.92&#10;  C 316.96 46.41 314.02 48.19 311.87 50.08&#10;  Q 308.56 52.98 306.02 54.93&#10;  C 301.44 58.45 298.66 61.56 294.59 64.96&#10;  Q 292.82 66.44 289.11 70.25&#10;  Q 282.35 77.19 276.89 82.97&#10;  Q 272.45 87.67 267.47 93.78&#10;  Q 261.16 101.53 258.42 104.93&#10;  Q 256.86 106.88 255.58 106.48&#10;  Q 257.54 104.94 258.05 103.63&#10;  A 1.39 1.35 -11.8 0 1 258.38 103.14&#10;  Q 258.96 102.61 259.03 102.53&#10;  Q 275.96 81.50 286.70 70.95&#10;  C 319.19 39.03 358.66 14.12 403.36 4.40&#10;  Q 407.81 3.44 413.43 2.69&#10;  Q 419.60 1.87 420.19 1.71&#10;  Q 423.29 0.87 426.92 1.04&#10;  C 432.77 1.30 440.06 0.35 446.91 0.82&#10;  Q 451.32 1.13 457.64 1.10&#10;  A 4.42 4.35 -34.6 0 1 459.13 1.36&#10;  Q 459.97 1.66 465.97 2.39&#10;  Q 485.45 4.75 504.97 11.78&#10;  Q 512.68 14.57 521.68 19.08&#10;  Q 526.20 21.35 533.84 25.70&#10;  Q 534.01 25.80 534.73 26.24&#10;  Q 538.98 28.89 544.43 33.09&#10;  Q 557.55 43.20 567.38 55.35&#10;  Q 568.01 56.13 570.06 58.87&#10;  Q 575.41 66.02 579.86 73.85&#10;  Q 591.21 93.85 597.33 119.19&#10;  Q 599.78 129.35 600.86 137.78&#10;  Q 601.12 139.81 601.61 141.94&#10;  C 602.06 143.86 601.87 145.59 602.12 148.02&#10;  Q 602.73 153.86 603.81 167.00&#10;  Q 604.00 169.37 603.75 186.13&#10;  C 603.68 190.74 602.67 195.76 602.83 200.11&#10;  Q 602.91 202.15 602.28 205.36&#10;  C 601.67 208.47 602.26 212.15 601.39 215.32&#10;  C 600.66 217.99 601.24 221.13 600.19 223.88&#10;  C 599.68 225.23 600.01 227.35 599.65 229.19&#10;  Q 599.01 232.50 597.83 239.24&#10;  Q 591.19 277.39 575.93 316.74&#10;  Q 566.99 339.79 553.99 363.49&#10;  Q 545.82 378.38 535.61 392.11&#10;  Z"/>
<path fill="#0e2041" fill-opacity="0.992" d="&#10;  M 535.61 392.11&#10;  Q 524.93 407.85 511.85 422.12&#10;  Q 473.58 463.90 421.74 485.94&#10;  Q 418.57 487.29 415.36 488.72&#10;  A 2.37 2.32 -59.7 0 1 414.63 488.92&#10;  C 413.12 489.08 411.76 490.13 409.94 490.73&#10;  Q 407.86 491.41 401.32 493.66&#10;  Q 398.56 494.61 396.59 495.05&#10;  Q 394.33 495.55 392.72 496.33&#10;  A 5.16 5.07 29.1 0 1 390.90 496.83&#10;  Q 387.97 497.10 384.71 498.52&#10;  A 3.76 3.73 31.7 0 1 383.37 498.83&#10;  Q 380.13 498.95 376.34 500.37&#10;  A 7.34 7.31 33.2 0 1 374.02 500.85&#10;  Q 369.07 501.08 364.52 502.61&#10;  A 4.25 4.20 34.8 0 1 363.37 502.81&#10;  Q 357.02 503.06 350.88 504.05&#10;  Q 345.08 504.98 340.06 504.97&#10;  Q 317.56 504.92 313.11 504.89&#10;  A 9.03 8.95 -38.5 0 1 311.37 504.70&#10;  Q 307.52 503.90 304.45 503.83&#10;  C 301.43 503.76 299.61 502.91 296.58 502.92&#10;  Q 295.51 502.92 293.47 502.41&#10;  Q 289.29 501.36 283.91 500.70&#10;  A 3.12 2.80 55.3 0 1 283.24 500.54&#10;  Q 279.79 499.29 276.22 498.81&#10;  A 3.60 3.60 0.0 0 1 275.24 498.53&#10;  Q 272.24 497.16 269.41 496.88&#10;  A 3.84 3.78 60.2 0 1 268.24 496.55&#10;  Q 265.69 495.32 263.24 494.85&#10;  A 3.36 3.11 62.1 0 1 262.30 494.52&#10;  C 259.70 493.13 258.15 492.95 255.12 491.66&#10;  Q 245.64 487.64 237.38 482.87&#10;  Q 217.73 471.52 204.32 452.92&#10;  Q 201.46 448.95 200.44 447.92&#10;  A 1.27 1.25 21.6 0 1 200.07 447.08&#10;  Q 200.01 445.79 199.10 445.18&#10;  Q 197.94 444.40 197.01 444.91&#10;  Q 194.13 452.43 192.73 460.51&#10;  Q 191.28 468.82 191.12 469.66&#10;  Q 187.23 489.07 184.45 502.03&#10;  C 182.23 512.41 180.36 523.49 177.90 533.96&#10;  Q 177.06 537.55 175.73 544.58&#10;  Q 174.49 551.23 173.66 555.23&#10;  Q 164.31 600.58 161.54 614.00&#10;  Q 158.91 626.74 157.41 642.03&#10;  C 156.90 647.18 157.96 652.84 159.35 656.72&#10;  C 163.08 667.10 173.02 672.70 183.88 673.58&#10;  A 1.45 1.45 0.0 0 1 185.18 675.34&#10;  L 183.55 682.68&#10;  A 1.57 1.57 0.0 0 1 182.03 683.91&#10;  Q 180.43 683.91 178.50 683.90&#10;  Q 119.53 683.76 49.26 683.80&#10;  Q 38.49 683.81 28.62 682.24&#10;  C 25.36 681.73 22.29 680.60 19.91 679.77&#10;  C 10.00 676.36 3.12 666.02 2.10 655.74&#10;  Q 1.32 647.90 2.00 643.13&#10;  Q 4.05 628.61 7.71 612.49&#10;  Q 7.72 612.46 8.88 607.00&#10;  Q 15.00 578.09 25.21 527.83&#10;  Q 27.31 517.50 34.92 480.17&#10;  Q 39.50 457.66 54.05 386.80&#10;  Q 72.49 296.97 100.61 153.44&#10;  Q 104.08 135.76 107.82 117.32&#10;  Q 114.44 84.65 114.99 81.22&#10;  C 117.20 67.43 117.65 54.31 106.38 44.67&#10;  Q 98.81 38.20 87.61 37.34&#10;  A 2.17 2.17 0.0 0 1 85.66 34.71&#10;  L 86.46 31.11&#10;  A 3.12 3.12 0.0 0 1 89.49 28.67&#10;  Q 102.64 28.62 120.74 28.52&#10;  C 127.90 28.48 135.57 27.67 143.06 27.97&#10;  C 165.38 28.86 187.69 27.61 210.01 28.23&#10;  Q 215.59 28.39 224.49 28.00&#10;  Q 234.19 27.57 241.80 28.22&#10;  C 253.84 29.26 262.52 37.65 263.10 50.01&#10;  Q 263.43 56.76 261.75 63.70&#10;  Q 260.92 67.18 260.54 69.90&#10;  Q 260.38 71.01 257.18 85.88&#10;  Q 256.73 88.00 255.90 93.90&#10;  A 4.57 4.52 58.7 0 1 255.70 94.74&#10;  Q 253.89 100.02 254.54 105.33&#10;  Q 254.45 107.21 255.58 106.48&#10;  Q 256.86 106.88 258.42 104.93&#10;  Q 261.16 101.53 267.47 93.78&#10;  Q 272.45 87.67 276.89 82.97&#10;  Q 282.35 77.19 289.11 70.25&#10;  Q 292.82 66.44 294.59 64.96&#10;  C 298.66 61.56 301.44 58.45 306.02 54.93&#10;  Q 308.56 52.98 311.87 50.08&#10;  C 314.02 48.19 316.96 46.41 320.40 43.92&#10;  Q 342.66 27.81 366.30 17.57&#10;  Q 377.04 12.92 391.29 8.64&#10;  Q 397.24 6.85 412.72 4.13&#10;  Q 423.64 2.20 434.43 1.81&#10;  Q 475.04 0.33 513.17 16.15&#10;  Q 538.47 26.65 558.60 46.91&#10;  Q 559.70 48.01 564.26 53.05&#10;  Q 566.49 55.52 567.81 57.40&#10;  Q 568.57 58.49 571.23 62.12&#10;  Q 581.05 75.52 588.25 93.47&#10;  Q 595.97 112.72 599.44 133.46&#10;  Q 600.60 140.40 600.94 144.87&#10;  Q 601.53 152.61 602.16 156.31&#10;  Q 602.59 158.77 602.50 163.76&#10;  Q 602.48 165.45 602.54 171.25&#10;  Q 602.76 191.36 602.16 197.48&#10;  C 601.10 208.15 600.72 216.60 599.08 226.58&#10;  Q 597.01 239.21 596.92 239.71&#10;  Q 585.70 301.21 556.93 356.31&#10;  Q 553.13 363.58 546.52 374.36&#10;  Q 541.09 383.20 535.61 392.11&#10;  Z&#10;  M 378.84 48.52&#10;  Q 372.55 51.11 367.22 53.96&#10;  Q 362.29 56.59 356.55 61.03&#10;  C 348.22 67.48 340.60 74.14 333.75 82.12&#10;  C 331.42 84.84 326.25 90.02 322.59 94.88&#10;  Q 321.76 95.97 319.32 98.77&#10;  Q 317.66 100.66 314.30 106.12&#10;  A 9.51 9.15 -9.2 0 1 313.27 107.49&#10;  Q 311.75 109.14 311.41 109.64&#10;  Q 303.08 122.31 296.20 134.02&#10;  C 294.79 136.42 294.00 139.08 292.09 141.58&#10;  A 1.32 1.18 -15.3 0 0 291.91 141.86&#10;  L 285.51 154.50&#10;  A 0.85 0.64 70.7 0 0 285.44 154.72&#10;  C 285.11 156.48 283.88 158.02 283.11 159.70&#10;  Q 277.81 171.33 274.99 178.49&#10;  Q 264.26 205.75 254.88 239.87&#10;  Q 248.38 263.51 242.89 290.44&#10;  Q 237.82 315.28 235.61 340.01&#10;  Q 233.54 363.19 233.79 369.00&#10;  Q 233.85 370.25 235.12 390.98&#10;  C 235.40 395.63 236.28 399.50 236.63 403.76&#10;  Q 236.95 407.75 238.19 413.29&#10;  Q 240.30 422.66 241.51 426.84&#10;  Q 245.83 441.71 254.86 453.65&#10;  Q 254.90 453.70 258.06 457.20&#10;  C 263.59 463.35 269.96 467.78 277.53 470.68&#10;  Q 285.21 473.63 288.02 473.96&#10;  C 297.21 475.03 308.53 474.69 317.17 471.33&#10;  C 320.34 470.10 323.49 469.21 326.42 467.47&#10;  C 329.32 465.73 331.85 464.44 334.78 462.13&#10;  Q 345.61 453.57 352.66 445.16&#10;  Q 361.58 434.51 367.39 425.64&#10;  Q 384.38 399.67 397.54 370.04&#10;  Q 404.59 354.19 410.26 339.02&#10;  Q 432.39 279.84 443.34 217.06&#10;  Q 448.94 184.98 450.72 152.16&#10;  C 451.30 141.34 451.43 127.73 450.97 118.51&#10;  Q 450.33 105.92 447.31 90.43&#10;  C 446.68 87.17 445.04 82.33 444.01 79.48&#10;  Q 439.90 68.09 431.00 58.78&#10;  Q 423.60 51.05 413.03 48.08&#10;  Q 406.59 46.27 400.27 45.77&#10;  Q 400.07 45.76 390.17 45.97&#10;  C 386.01 46.06 381.92 47.24 378.84 48.52&#10;  Z"/>
<path fill="#020305" fill-opacity="0.996" d="&#10;  M 254.54 105.33&#10;  Q 253.89 100.02 255.70 94.74&#10;  A 4.57 4.52 58.7 0 0 255.90 93.90&#10;  Q 256.73 88.00 257.18 85.88&#10;  Q 260.38 71.01 260.54 69.90&#10;  Q 260.92 67.18 261.75 63.70&#10;  Q 263.43 56.76 263.10 50.01&#10;  C 262.52 37.65 253.84 29.26 241.80 28.22&#10;  Q 234.19 27.57 224.49 28.00&#10;  Q 215.59 28.39 210.01 28.23&#10;  C 187.69 27.61 165.38 28.86 143.06 27.97&#10;  C 135.57 27.67 127.90 28.48 120.74 28.52&#10;  Q 102.64 28.62 89.49 28.67&#10;  A 3.12 3.12 0.0 0 0 86.46 31.11&#10;  L 85.66 34.71&#10;  A 2.17 2.17 0.0 0 0 87.61 37.34&#10;  Q 98.81 38.20 106.38 44.67&#10;  C 117.65 54.31 117.20 67.43 114.99 81.22&#10;  Q 114.44 84.65 107.82 117.32&#10;  Q 104.08 135.76 100.61 153.44&#10;  Q 72.49 296.97 54.05 386.80&#10;  Q 39.50 457.66 34.92 480.17&#10;  Q 27.31 517.50 25.21 527.83&#10;  Q 15.00 578.09 8.88 607.00&#10;  Q 7.72 612.46 7.71 612.49&#10;  Q 4.05 628.61 2.00 643.13&#10;  Q 1.32 647.90 2.10 655.74&#10;  C 3.12 666.02 10.00 676.36 19.91 679.77&#10;  C 22.29 680.60 25.36 681.73 28.62 682.24&#10;  Q 38.49 683.81 49.26 683.80&#10;  Q 119.53 683.76 178.50 683.90&#10;  Q 180.43 683.91 182.03 683.91&#10;  A 1.57 1.57 0.0 0 0 183.55 682.68&#10;  L 185.18 675.34&#10;  A 1.45 1.45 0.0 0 0 183.88 673.58&#10;  C 173.02 672.70 163.08 667.10 159.35 656.72&#10;  C 157.96 652.84 156.90 647.18 157.41 642.03&#10;  Q 158.91 626.74 161.54 614.00&#10;  Q 164.31 600.58 173.66 555.23&#10;  Q 174.49 551.23 175.73 544.58&#10;  Q 177.06 537.55 177.90 533.96&#10;  C 180.36 523.49 182.23 512.41 184.45 502.03&#10;  Q 187.23 489.07 191.12 469.66&#10;  Q 191.28 468.82 192.73 460.51&#10;  Q 194.13 452.43 197.01 444.91&#10;  Q 178.57 535.38 160.27 625.60&#10;  C 159.86 627.58 160.14 629.83 159.70 631.24&#10;  Q 159.34 632.38 158.95 636.77&#10;  Q 158.51 641.65 158.50 641.70&#10;  Q 157.80 650.92 160.54 657.54&#10;  Q 163.51 664.68 171.55 669.21&#10;  C 175.64 671.52 181.92 672.47 186.10 673.26&#10;  A 0.78 0.78 0.0 0 1 186.58 674.49&#10;  Q 185.80 675.51 185.86 676.80&#10;  Q 185.93 678.19 185.65 679.31&#10;  Q 184.83 682.57 183.60 685.00&#10;  L 40.51 685.00&#10;  L 25.71 682.75&#10;  A 2.23 2.15 61.3 0 1 25.04 682.54&#10;  Q 22.61 681.36 20.04 680.94&#10;  A 3.27 3.18 -27.4 0 1 19.18 680.68&#10;  Q 9.50 676.27 4.25 666.88&#10;  A 7.79 7.70 -69.1 0 1 3.70 665.63&#10;  L 1.65 659.44&#10;  A 7.71 7.46 33.4 0 1 1.31 657.91&#10;  Q 0.27 649.04 1.30 639.74&#10;  A 2.60 2.41 -32.5 0 1 1.49 639.02&#10;  C 2.32 637.15 1.63 634.24 2.55 632.69&#10;  C 3.16 631.68 3.01 630.31 3.27 629.10&#10;  Q 5.12 620.22 14.05 577.00&#10;  Q 15.68 569.09 58.32 360.17&#10;  Q 74.37 281.53 77.63 264.92&#10;  Q 102.47 138.38 112.56 88.52&#10;  Q 113.08 85.93 113.09 85.68&#10;  C 113.13 83.51 114.11 82.19 114.08 79.80&#10;  Q 114.06 78.36 114.41 76.70&#10;  Q 115.53 71.50 115.06 63.77&#10;  C 114.93 61.75 113.98 60.35 114.04 58.40&#10;  A 2.39 2.32 37.4 0 0 113.91 57.52&#10;  Q 110.13 46.27 99.06 41.04&#10;  A 2.05 1.80 -26.9 0 0 98.44 40.88&#10;  Q 97.86 40.84 97.59 40.68&#10;  Q 94.91 39.05 92.50 38.95&#10;  C 89.95 38.84 88.31 37.70 85.64 37.85&#10;  A 1.38 1.37 -75.8 0 1 84.39 35.75&#10;  Q 85.28 34.32 85.10 32.64&#10;  A 1.70 1.70 0.0 0 1 85.41 31.44&#10;  Q 86.13 30.43 86.17 28.97&#10;  A 1.36 1.36 0.0 0 1 87.55 27.64&#10;  C 96.32 27.73 111.28 27.09 124.17 27.09&#10;  Q 196.72 27.10 234.00 26.90&#10;  C 237.95 26.88 242.68 26.78 246.56 27.94&#10;  Q 254.36 30.30 259.35 36.03&#10;  A 2.55 2.51 -74.7 0 1 259.86 36.94&#10;  C 260.32 38.36 261.41 39.21 261.96 40.75&#10;  Q 263.66 45.50 263.82 47.13&#10;  Q 264.56 54.64 262.99 62.49&#10;  Q 261.38 70.52 256.72 93.86&#10;  Q 256.51 94.91 256.16 96.14&#10;  C 255.76 97.51 256.00 98.75 255.54 100.29&#10;  Q 254.86 102.53 254.54 105.33&#10;  Z"/>
<path fill="#020305" fill-opacity="0.996" d="&#10;  M 378.84 48.52&#10;  C 381.92 47.24 386.01 46.06 390.17 45.97&#10;  Q 400.07 45.76 400.27 45.77&#10;  Q 406.59 46.27 413.03 48.08&#10;  Q 423.60 51.05 431.00 58.78&#10;  Q 439.90 68.09 444.01 79.48&#10;  C 445.04 82.33 446.68 87.17 447.31 90.43&#10;  Q 450.33 105.92 450.97 118.51&#10;  C 451.43 127.73 451.30 141.34 450.72 152.16&#10;  Q 448.94 184.98 443.34 217.06&#10;  Q 432.39 279.84 410.26 339.02&#10;  Q 404.59 354.19 397.54 370.04&#10;  Q 384.38 399.67 367.39 425.64&#10;  Q 361.58 434.51 352.66 445.16&#10;  Q 345.61 453.57 334.78 462.13&#10;  C 331.85 464.44 329.32 465.73 326.42 467.47&#10;  C 323.49 469.21 320.34 470.10 317.17 471.33&#10;  C 308.53 474.69 297.21 475.03 288.02 473.96&#10;  Q 285.21 473.63 277.53 470.68&#10;  C 269.96 467.78 263.59 463.35 258.06 457.20&#10;  Q 254.90 453.70 254.86 453.65&#10;  Q 245.83 441.71 241.51 426.84&#10;  Q 240.30 422.66 238.19 413.29&#10;  Q 236.95 407.75 236.63 403.76&#10;  C 236.28 399.50 235.40 395.63 235.12 390.98&#10;  Q 233.85 370.25 233.79 369.00&#10;  Q 233.54 363.19 235.61 340.01&#10;  Q 237.82 315.28 242.89 290.44&#10;  Q 248.38 263.51 254.88 239.87&#10;  Q 264.26 205.75 274.99 178.49&#10;  Q 277.81 171.33 283.11 159.70&#10;  C 283.88 158.02 285.11 156.48 285.44 154.72&#10;  A 0.85 0.64 70.7 0 1 285.51 154.50&#10;  L 291.91 141.86&#10;  A 1.32 1.18 -15.3 0 1 292.09 141.58&#10;  C 294.00 139.08 294.79 136.42 296.20 134.02&#10;  Q 303.08 122.31 311.41 109.64&#10;  Q 311.75 109.14 313.27 107.49&#10;  A 9.51 9.15 -9.2 0 0 314.30 106.12&#10;  Q 317.66 100.66 319.32 98.77&#10;  Q 321.76 95.97 322.59 94.88&#10;  C 326.25 90.02 331.42 84.84 333.75 82.12&#10;  C 340.60 74.14 348.22 67.48 356.55 61.03&#10;  Q 362.29 56.59 367.22 53.96&#10;  Q 372.55 51.11 378.84 48.52&#10;  Z&#10;  M 399.95 362.39&#10;  Q 416.44 322.73 428.03 280.75&#10;  Q 429.35 275.99 429.62 275.20&#10;  A 6.50 6.18 -32.2 0 0 429.90 274.10&#10;  Q 430.38 270.87 431.64 267.42&#10;  A 5.81 5.46 60.3 0 0 431.93 266.22&#10;  Q 432.32 263.10 433.73 258.83&#10;  A 5.94 5.82 -33.8 0 0 434.01 257.48&#10;  Q 434.28 254.75 435.73 250.57&#10;  A 2.57 2.32 -35.0 0 0 435.87 249.96&#10;  Q 436.27 246.14 437.73 241.29&#10;  A 4.53 4.50 56.1 0 0 437.91 240.35&#10;  Q 438.21 237.33 438.36 236.86&#10;  Q 439.34 233.88 440.10 228.69&#10;  Q 440.24 227.71 440.90 224.60&#10;  Q 441.78 220.52 441.83 220.50&#10;  Q 441.99 220.43 442.12 217.49&#10;  Q 442.22 215.32 442.85 214.14&#10;  C 443.37 213.19 442.94 210.76 443.56 209.32&#10;  C 444.37 207.44 443.94 205.08 444.44 202.76&#10;  Q 446.01 195.53 446.18 189.06&#10;  A 6.64 6.58 -35.0 0 1 446.53 187.13&#10;  C 447.45 184.47 446.85 181.83 447.47 179.29&#10;  C 448.23 176.14 448.20 172.19 448.10 170.05&#10;  Q 448.09 169.96 448.74 165.50&#10;  Q 448.94 164.09 449.28 158.00&#10;  Q 450.58 135.00 449.94 122.24&#10;  Q 449.39 111.00 449.17 107.61&#10;  A 4.53 4.41 34.7 0 0 448.97 106.59&#10;  Q 448.01 103.69 448.07 101.17&#10;  C 448.14 98.79 447.16 96.47 447.18 94.57&#10;  A 2.42 2.36 32.5 0 0 446.91 93.43&#10;  Q 446.04 91.80 446.01 89.49&#10;  A 5.10 5.07 36.3 0 0 445.79 88.08&#10;  Q 444.35 83.51 443.35 80.64&#10;  Q 437.99 65.29 426.08 55.70&#10;  Q 421.30 51.84 418.77 51.14&#10;  Q 417.15 50.69 415.84 50.01&#10;  C 413.90 49.00 413.48 49.08 411.45 48.84&#10;  A 5.63 5.56 57.5 0 1 410.22 48.56&#10;  C 403.44 46.15 396.99 46.87 386.75 46.98&#10;  Q 385.12 47.00 381.70 48.56&#10;  A 4.04 3.78 -58.8 0 1 380.52 48.89&#10;  L 379.74 48.98&#10;  A 3.28 3.19 -64.3 0 0 378.35 49.49&#10;  Q 376.32 50.79 374.89 50.94&#10;  A 1.62 1.60 -71.4 0 0 373.92 51.43&#10;  Q 373.30 52.09 371.23 52.96&#10;  Q 367.88 54.35 359.66 59.92&#10;  Q 353.63 64.01 343.85 72.86&#10;  Q 340.49 75.90 335.68 81.19&#10;  Q 328.68 88.88 327.86 89.86&#10;  Q 307.81 113.77 291.88 143.95&#10;  Q 289.89 147.72 289.56 148.68&#10;  A 2.58 2.49 75.6 0 1 289.13 149.44&#10;  Q 288.27 150.42 288.13 151.31&#10;  C 287.84 153.09 286.13 154.30 285.94 155.96&#10;  A 1.13 1.09 69.3 0 1 285.69 156.54&#10;  Q 284.91 157.44 279.05 171.12&#10;  Q 275.45 179.53 271.25 191.09&#10;  Q 268.41 198.88 267.94 200.23&#10;  Q 264.53 210.09 260.87 222.32&#10;  Q 248.76 262.85 241.17 304.90&#10;  Q 240.41 309.12 239.61 315.17&#10;  Q 238.85 320.85 238.02 325.47&#10;  C 237.70 327.30 238.06 329.06 237.56 330.90&#10;  C 236.72 334.03 237.24 337.30 236.57 339.71&#10;  C 235.36 344.02 236.05 350.52 235.56 355.77&#10;  Q 234.58 366.28 235.32 377.04&#10;  Q 235.91 385.66 236.00 389.99&#10;  Q 236.14 396.66 237.42 402.87&#10;  C 237.75 404.49 237.79 406.12 238.06 407.81&#10;  Q 240.38 422.35 244.90 434.12&#10;  Q 247.97 442.09 252.76 449.26&#10;  Q 264.35 466.58 284.90 472.09&#10;  Q 288.84 473.14 294.28 473.09&#10;  Q 302.62 473.00 303.70 472.89&#10;  Q 313.51 471.86 322.35 468.05&#10;  Q 327.03 466.03 331.85 462.58&#10;  C 347.57 451.31 359.83 435.83 369.90 419.91&#10;  Q 384.99 396.06 397.57 367.52&#10;  C 398.14 366.25 398.61 364.44 399.66 362.91&#10;  A 3.01 2.54 78.9 0 0 399.95 362.39&#10;  Z"/>
</svg>